<?xml version="1.0" encoding="utf-8" standalone="no"?>
<!DOCTYPE svg PUBLIC "-//W3C//DTD SVG 1.1//EN"
  "http://www.w3.org/Graphics/SVG/1.1/DTD/svg11.dtd">
<!-- Created with matplotlib (https://matplotlib.org/) -->
<svg height="432pt" version="1.1" viewBox="0 0 1440 432" width="1440pt" xmlns="http://www.w3.org/2000/svg" xmlns:xlink="http://www.w3.org/1999/xlink">
 <metadata>
  <rdf:RDF xmlns:cc="http://creativecommons.org/ns#" xmlns:dc="http://purl.org/dc/elements/1.1/" xmlns:rdf="http://www.w3.org/1999/02/22-rdf-syntax-ns#">
   <cc:Work>
    <dc:type rdf:resource="http://purl.org/dc/dcmitype/StillImage"/>
    <dc:date>2021-06-21T00:54:17.689555</dc:date>
    <dc:format>image/svg+xml</dc:format>
    <dc:creator>
     <cc:Agent>
      <dc:title>Matplotlib v3.3.4, https://matplotlib.org/</dc:title>
     </cc:Agent>
    </dc:creator>
   </cc:Work>
  </rdf:RDF>
 </metadata>
 <defs>
  <style type="text/css">*{stroke-linecap:butt;stroke-linejoin:round;}</style>
 </defs>
 <g id="figure_1">
  <g id="patch_1">
   <path d="M 0 432 
L 1440 432 
L 1440 0 
L 0 0 
z
" style="fill:#f0f0f0;"/>
  </g>
  <g id="axes_1">
   <g id="patch_2">
    <path d="M 115.2 401.76 
L 1368 401.76 
L 1368 51.84 
L 115.2 51.84 
z
" style="fill:#f0f0f0;"/>
   </g>
   <g id="matplotlib.axis_1">
    <g id="xtick_1">
     <g id="line2d_1">
      <path clip-path="url(#p5ee367bdf8)" d="M 172.145455 401.76 
L 172.145455 51.84 
" style="fill:none;stroke:#cbcbcb;"/>
     </g>
     <g id="line2d_2"/>
     <g id="text_1">
      <!-- 2015-01 -->
      <g transform="translate(142.897486 415.897813)scale(0.14 -0.14)">
       <defs>
        <path d="M 19.1875 8.296875 
L 53.609375 8.296875 
L 53.609375 0 
L 7.328125 0 
L 7.328125 8.296875 
Q 12.9375 14.109375 22.625 23.890625 
Q 32.328125 33.6875 34.8125 36.53125 
Q 39.546875 41.84375 41.421875 45.53125 
Q 43.3125 49.21875 43.3125 52.78125 
Q 43.3125 58.59375 39.234375 62.25 
Q 35.15625 65.921875 28.609375 65.921875 
Q 23.96875 65.921875 18.8125 64.3125 
Q 13.671875 62.703125 7.8125 59.421875 
L 7.8125 69.390625 
Q 13.765625 71.78125 18.9375 73 
Q 24.125 74.21875 28.421875 74.21875 
Q 39.75 74.21875 46.484375 68.546875 
Q 53.21875 62.890625 53.21875 53.421875 
Q 53.21875 48.921875 51.53125 44.890625 
Q 49.859375 40.875 45.40625 35.40625 
Q 44.1875 33.984375 37.640625 27.21875 
Q 31.109375 20.453125 19.1875 8.296875 
z
" id="DejaVuSans-50"/>
        <path d="M 31.78125 66.40625 
Q 24.171875 66.40625 20.328125 58.90625 
Q 16.5 51.421875 16.5 36.375 
Q 16.5 21.390625 20.328125 13.890625 
Q 24.171875 6.390625 31.78125 6.390625 
Q 39.453125 6.390625 43.28125 13.890625 
Q 47.125 21.390625 47.125 36.375 
Q 47.125 51.421875 43.28125 58.90625 
Q 39.453125 66.40625 31.78125 66.40625 
z
M 31.78125 74.21875 
Q 44.046875 74.21875 50.515625 64.515625 
Q 56.984375 54.828125 56.984375 36.375 
Q 56.984375 17.96875 50.515625 8.265625 
Q 44.046875 -1.421875 31.78125 -1.421875 
Q 19.53125 -1.421875 13.0625 8.265625 
Q 6.59375 17.96875 6.59375 36.375 
Q 6.59375 54.828125 13.0625 64.515625 
Q 19.53125 74.21875 31.78125 74.21875 
z
" id="DejaVuSans-48"/>
        <path d="M 12.40625 8.296875 
L 28.515625 8.296875 
L 28.515625 63.921875 
L 10.984375 60.40625 
L 10.984375 69.390625 
L 28.421875 72.90625 
L 38.28125 72.90625 
L 38.28125 8.296875 
L 54.390625 8.296875 
L 54.390625 0 
L 12.40625 0 
z
" id="DejaVuSans-49"/>
        <path d="M 10.796875 72.90625 
L 49.515625 72.90625 
L 49.515625 64.59375 
L 19.828125 64.59375 
L 19.828125 46.734375 
Q 21.96875 47.46875 24.109375 47.828125 
Q 26.265625 48.1875 28.421875 48.1875 
Q 40.625 48.1875 47.75 41.5 
Q 54.890625 34.8125 54.890625 23.390625 
Q 54.890625 11.625 47.5625 5.09375 
Q 40.234375 -1.421875 26.90625 -1.421875 
Q 22.3125 -1.421875 17.546875 -0.640625 
Q 12.796875 0.140625 7.71875 1.703125 
L 7.71875 11.625 
Q 12.109375 9.234375 16.796875 8.0625 
Q 21.484375 6.890625 26.703125 6.890625 
Q 35.15625 6.890625 40.078125 11.328125 
Q 45.015625 15.765625 45.015625 23.390625 
Q 45.015625 31 40.078125 35.4375 
Q 35.15625 39.890625 26.703125 39.890625 
Q 22.75 39.890625 18.8125 39.015625 
Q 14.890625 38.140625 10.796875 36.28125 
z
" id="DejaVuSans-53"/>
        <path d="M 4.890625 31.390625 
L 31.203125 31.390625 
L 31.203125 23.390625 
L 4.890625 23.390625 
z
" id="DejaVuSans-45"/>
       </defs>
       <use xlink:href="#DejaVuSans-50"/>
       <use x="63.623047" xlink:href="#DejaVuSans-48"/>
       <use x="127.246094" xlink:href="#DejaVuSans-49"/>
       <use x="190.869141" xlink:href="#DejaVuSans-53"/>
       <use x="254.492188" xlink:href="#DejaVuSans-45"/>
       <use x="290.576172" xlink:href="#DejaVuSans-48"/>
       <use x="354.199219" xlink:href="#DejaVuSans-49"/>
      </g>
     </g>
    </g>
    <g id="xtick_2">
     <g id="line2d_3">
      <path clip-path="url(#p5ee367bdf8)" d="M 187.330909 401.76 
L 187.330909 51.84 
" style="fill:none;stroke:#cbcbcb;"/>
     </g>
     <g id="line2d_4"/>
    </g>
    <g id="xtick_3">
     <g id="line2d_5">
      <path clip-path="url(#p5ee367bdf8)" d="M 202.516364 401.76 
L 202.516364 51.84 
" style="fill:none;stroke:#cbcbcb;"/>
     </g>
     <g id="line2d_6"/>
    </g>
    <g id="xtick_4">
     <g id="line2d_7">
      <path clip-path="url(#p5ee367bdf8)" d="M 217.701818 401.76 
L 217.701818 51.84 
" style="fill:none;stroke:#cbcbcb;"/>
     </g>
     <g id="line2d_8"/>
    </g>
    <g id="xtick_5">
     <g id="line2d_9">
      <path clip-path="url(#p5ee367bdf8)" d="M 232.887273 401.76 
L 232.887273 51.84 
" style="fill:none;stroke:#cbcbcb;"/>
     </g>
     <g id="line2d_10"/>
     <g id="text_2">
      <!-- 2015-05 -->
      <g transform="translate(203.639304 415.897813)scale(0.14 -0.14)">
       <use xlink:href="#DejaVuSans-50"/>
       <use x="63.623047" xlink:href="#DejaVuSans-48"/>
       <use x="127.246094" xlink:href="#DejaVuSans-49"/>
       <use x="190.869141" xlink:href="#DejaVuSans-53"/>
       <use x="254.492188" xlink:href="#DejaVuSans-45"/>
       <use x="290.576172" xlink:href="#DejaVuSans-48"/>
       <use x="354.199219" xlink:href="#DejaVuSans-53"/>
      </g>
     </g>
    </g>
    <g id="xtick_6">
     <g id="line2d_11">
      <path clip-path="url(#p5ee367bdf8)" d="M 248.072727 401.76 
L 248.072727 51.84 
" style="fill:none;stroke:#cbcbcb;"/>
     </g>
     <g id="line2d_12"/>
    </g>
    <g id="xtick_7">
     <g id="line2d_13">
      <path clip-path="url(#p5ee367bdf8)" d="M 263.258182 401.76 
L 263.258182 51.84 
" style="fill:none;stroke:#cbcbcb;"/>
     </g>
     <g id="line2d_14"/>
    </g>
    <g id="xtick_8">
     <g id="line2d_15">
      <path clip-path="url(#p5ee367bdf8)" d="M 278.443636 401.76 
L 278.443636 51.84 
" style="fill:none;stroke:#cbcbcb;"/>
     </g>
     <g id="line2d_16"/>
    </g>
    <g id="xtick_9">
     <g id="line2d_17">
      <path clip-path="url(#p5ee367bdf8)" d="M 293.629091 401.76 
L 293.629091 51.84 
" style="fill:none;stroke:#cbcbcb;"/>
     </g>
     <g id="line2d_18"/>
     <g id="text_3">
      <!-- 2015-09 -->
      <g transform="translate(264.381122 415.897813)scale(0.14 -0.14)">
       <defs>
        <path d="M 10.984375 1.515625 
L 10.984375 10.5 
Q 14.703125 8.734375 18.5 7.8125 
Q 22.3125 6.890625 25.984375 6.890625 
Q 35.75 6.890625 40.890625 13.453125 
Q 46.046875 20.015625 46.78125 33.40625 
Q 43.953125 29.203125 39.59375 26.953125 
Q 35.25 24.703125 29.984375 24.703125 
Q 19.046875 24.703125 12.671875 31.3125 
Q 6.296875 37.9375 6.296875 49.421875 
Q 6.296875 60.640625 12.9375 67.421875 
Q 19.578125 74.21875 30.609375 74.21875 
Q 43.265625 74.21875 49.921875 64.515625 
Q 56.59375 54.828125 56.59375 36.375 
Q 56.59375 19.140625 48.40625 8.859375 
Q 40.234375 -1.421875 26.421875 -1.421875 
Q 22.703125 -1.421875 18.890625 -0.6875 
Q 15.09375 0.046875 10.984375 1.515625 
z
M 30.609375 32.421875 
Q 37.25 32.421875 41.125 36.953125 
Q 45.015625 41.5 45.015625 49.421875 
Q 45.015625 57.28125 41.125 61.84375 
Q 37.25 66.40625 30.609375 66.40625 
Q 23.96875 66.40625 20.09375 61.84375 
Q 16.21875 57.28125 16.21875 49.421875 
Q 16.21875 41.5 20.09375 36.953125 
Q 23.96875 32.421875 30.609375 32.421875 
z
" id="DejaVuSans-57"/>
       </defs>
       <use xlink:href="#DejaVuSans-50"/>
       <use x="63.623047" xlink:href="#DejaVuSans-48"/>
       <use x="127.246094" xlink:href="#DejaVuSans-49"/>
       <use x="190.869141" xlink:href="#DejaVuSans-53"/>
       <use x="254.492188" xlink:href="#DejaVuSans-45"/>
       <use x="290.576172" xlink:href="#DejaVuSans-48"/>
       <use x="354.199219" xlink:href="#DejaVuSans-57"/>
      </g>
     </g>
    </g>
    <g id="xtick_10">
     <g id="line2d_19">
      <path clip-path="url(#p5ee367bdf8)" d="M 308.814545 401.76 
L 308.814545 51.84 
" style="fill:none;stroke:#cbcbcb;"/>
     </g>
     <g id="line2d_20"/>
    </g>
    <g id="xtick_11">
     <g id="line2d_21">
      <path clip-path="url(#p5ee367bdf8)" d="M 324 401.76 
L 324 51.84 
" style="fill:none;stroke:#cbcbcb;"/>
     </g>
     <g id="line2d_22"/>
    </g>
    <g id="xtick_12">
     <g id="line2d_23">
      <path clip-path="url(#p5ee367bdf8)" d="M 339.185455 401.76 
L 339.185455 51.84 
" style="fill:none;stroke:#cbcbcb;"/>
     </g>
     <g id="line2d_24"/>
    </g>
    <g id="xtick_13">
     <g id="line2d_25">
      <path clip-path="url(#p5ee367bdf8)" d="M 354.370909 401.76 
L 354.370909 51.84 
" style="fill:none;stroke:#cbcbcb;"/>
     </g>
     <g id="line2d_26"/>
     <g id="text_4">
      <!-- 2016-01 -->
      <g transform="translate(325.12294 415.897813)scale(0.14 -0.14)">
       <defs>
        <path d="M 33.015625 40.375 
Q 26.375 40.375 22.484375 35.828125 
Q 18.609375 31.296875 18.609375 23.390625 
Q 18.609375 15.53125 22.484375 10.953125 
Q 26.375 6.390625 33.015625 6.390625 
Q 39.65625 6.390625 43.53125 10.953125 
Q 47.40625 15.53125 47.40625 23.390625 
Q 47.40625 31.296875 43.53125 35.828125 
Q 39.65625 40.375 33.015625 40.375 
z
M 52.59375 71.296875 
L 52.59375 62.3125 
Q 48.875 64.0625 45.09375 64.984375 
Q 41.3125 65.921875 37.59375 65.921875 
Q 27.828125 65.921875 22.671875 59.328125 
Q 17.53125 52.734375 16.796875 39.40625 
Q 19.671875 43.65625 24.015625 45.921875 
Q 28.375 48.1875 33.59375 48.1875 
Q 44.578125 48.1875 50.953125 41.515625 
Q 57.328125 34.859375 57.328125 23.390625 
Q 57.328125 12.15625 50.6875 5.359375 
Q 44.046875 -1.421875 33.015625 -1.421875 
Q 20.359375 -1.421875 13.671875 8.265625 
Q 6.984375 17.96875 6.984375 36.375 
Q 6.984375 53.65625 15.1875 63.9375 
Q 23.390625 74.21875 37.203125 74.21875 
Q 40.921875 74.21875 44.703125 73.484375 
Q 48.484375 72.75 52.59375 71.296875 
z
" id="DejaVuSans-54"/>
       </defs>
       <use xlink:href="#DejaVuSans-50"/>
       <use x="63.623047" xlink:href="#DejaVuSans-48"/>
       <use x="127.246094" xlink:href="#DejaVuSans-49"/>
       <use x="190.869141" xlink:href="#DejaVuSans-54"/>
       <use x="254.492188" xlink:href="#DejaVuSans-45"/>
       <use x="290.576172" xlink:href="#DejaVuSans-48"/>
       <use x="354.199219" xlink:href="#DejaVuSans-49"/>
      </g>
     </g>
    </g>
    <g id="xtick_14">
     <g id="line2d_27">
      <path clip-path="url(#p5ee367bdf8)" d="M 369.556364 401.76 
L 369.556364 51.84 
" style="fill:none;stroke:#cbcbcb;"/>
     </g>
     <g id="line2d_28"/>
    </g>
    <g id="xtick_15">
     <g id="line2d_29">
      <path clip-path="url(#p5ee367bdf8)" d="M 384.741818 401.76 
L 384.741818 51.84 
" style="fill:none;stroke:#cbcbcb;"/>
     </g>
     <g id="line2d_30"/>
    </g>
    <g id="xtick_16">
     <g id="line2d_31">
      <path clip-path="url(#p5ee367bdf8)" d="M 399.927273 401.76 
L 399.927273 51.84 
" style="fill:none;stroke:#cbcbcb;"/>
     </g>
     <g id="line2d_32"/>
    </g>
    <g id="xtick_17">
     <g id="line2d_33">
      <path clip-path="url(#p5ee367bdf8)" d="M 415.112727 401.76 
L 415.112727 51.84 
" style="fill:none;stroke:#cbcbcb;"/>
     </g>
     <g id="line2d_34"/>
     <g id="text_5">
      <!-- 2016-05 -->
      <g transform="translate(385.864759 415.897813)scale(0.14 -0.14)">
       <use xlink:href="#DejaVuSans-50"/>
       <use x="63.623047" xlink:href="#DejaVuSans-48"/>
       <use x="127.246094" xlink:href="#DejaVuSans-49"/>
       <use x="190.869141" xlink:href="#DejaVuSans-54"/>
       <use x="254.492188" xlink:href="#DejaVuSans-45"/>
       <use x="290.576172" xlink:href="#DejaVuSans-48"/>
       <use x="354.199219" xlink:href="#DejaVuSans-53"/>
      </g>
     </g>
    </g>
    <g id="xtick_18">
     <g id="line2d_35">
      <path clip-path="url(#p5ee367bdf8)" d="M 430.298182 401.76 
L 430.298182 51.84 
" style="fill:none;stroke:#cbcbcb;"/>
     </g>
     <g id="line2d_36"/>
    </g>
    <g id="xtick_19">
     <g id="line2d_37">
      <path clip-path="url(#p5ee367bdf8)" d="M 445.483636 401.76 
L 445.483636 51.84 
" style="fill:none;stroke:#cbcbcb;"/>
     </g>
     <g id="line2d_38"/>
    </g>
    <g id="xtick_20">
     <g id="line2d_39">
      <path clip-path="url(#p5ee367bdf8)" d="M 460.669091 401.76 
L 460.669091 51.84 
" style="fill:none;stroke:#cbcbcb;"/>
     </g>
     <g id="line2d_40"/>
    </g>
    <g id="xtick_21">
     <g id="line2d_41">
      <path clip-path="url(#p5ee367bdf8)" d="M 475.854545 401.76 
L 475.854545 51.84 
" style="fill:none;stroke:#cbcbcb;"/>
     </g>
     <g id="line2d_42"/>
     <g id="text_6">
      <!-- 2016-09 -->
      <g transform="translate(446.606577 415.897813)scale(0.14 -0.14)">
       <use xlink:href="#DejaVuSans-50"/>
       <use x="63.623047" xlink:href="#DejaVuSans-48"/>
       <use x="127.246094" xlink:href="#DejaVuSans-49"/>
       <use x="190.869141" xlink:href="#DejaVuSans-54"/>
       <use x="254.492188" xlink:href="#DejaVuSans-45"/>
       <use x="290.576172" xlink:href="#DejaVuSans-48"/>
       <use x="354.199219" xlink:href="#DejaVuSans-57"/>
      </g>
     </g>
    </g>
    <g id="xtick_22">
     <g id="line2d_43">
      <path clip-path="url(#p5ee367bdf8)" d="M 491.04 401.76 
L 491.04 51.84 
" style="fill:none;stroke:#cbcbcb;"/>
     </g>
     <g id="line2d_44"/>
    </g>
    <g id="xtick_23">
     <g id="line2d_45">
      <path clip-path="url(#p5ee367bdf8)" d="M 506.225455 401.76 
L 506.225455 51.84 
" style="fill:none;stroke:#cbcbcb;"/>
     </g>
     <g id="line2d_46"/>
    </g>
    <g id="xtick_24">
     <g id="line2d_47">
      <path clip-path="url(#p5ee367bdf8)" d="M 521.410909 401.76 
L 521.410909 51.84 
" style="fill:none;stroke:#cbcbcb;"/>
     </g>
     <g id="line2d_48"/>
    </g>
    <g id="xtick_25">
     <g id="line2d_49">
      <path clip-path="url(#p5ee367bdf8)" d="M 536.596364 401.76 
L 536.596364 51.84 
" style="fill:none;stroke:#cbcbcb;"/>
     </g>
     <g id="line2d_50"/>
     <g id="text_7">
      <!-- 2017-01 -->
      <g transform="translate(507.348395 415.897813)scale(0.14 -0.14)">
       <defs>
        <path d="M 8.203125 72.90625 
L 55.078125 72.90625 
L 55.078125 68.703125 
L 28.609375 0 
L 18.3125 0 
L 43.21875 64.59375 
L 8.203125 64.59375 
z
" id="DejaVuSans-55"/>
       </defs>
       <use xlink:href="#DejaVuSans-50"/>
       <use x="63.623047" xlink:href="#DejaVuSans-48"/>
       <use x="127.246094" xlink:href="#DejaVuSans-49"/>
       <use x="190.869141" xlink:href="#DejaVuSans-55"/>
       <use x="254.492188" xlink:href="#DejaVuSans-45"/>
       <use x="290.576172" xlink:href="#DejaVuSans-48"/>
       <use x="354.199219" xlink:href="#DejaVuSans-49"/>
      </g>
     </g>
    </g>
    <g id="xtick_26">
     <g id="line2d_51">
      <path clip-path="url(#p5ee367bdf8)" d="M 551.781818 401.76 
L 551.781818 51.84 
" style="fill:none;stroke:#cbcbcb;"/>
     </g>
     <g id="line2d_52"/>
    </g>
    <g id="xtick_27">
     <g id="line2d_53">
      <path clip-path="url(#p5ee367bdf8)" d="M 566.967273 401.76 
L 566.967273 51.84 
" style="fill:none;stroke:#cbcbcb;"/>
     </g>
     <g id="line2d_54"/>
    </g>
    <g id="xtick_28">
     <g id="line2d_55">
      <path clip-path="url(#p5ee367bdf8)" d="M 582.152727 401.76 
L 582.152727 51.84 
" style="fill:none;stroke:#cbcbcb;"/>
     </g>
     <g id="line2d_56"/>
    </g>
    <g id="xtick_29">
     <g id="line2d_57">
      <path clip-path="url(#p5ee367bdf8)" d="M 597.338182 401.76 
L 597.338182 51.84 
" style="fill:none;stroke:#cbcbcb;"/>
     </g>
     <g id="line2d_58"/>
     <g id="text_8">
      <!-- 2017-05 -->
      <g transform="translate(568.090213 415.897813)scale(0.14 -0.14)">
       <use xlink:href="#DejaVuSans-50"/>
       <use x="63.623047" xlink:href="#DejaVuSans-48"/>
       <use x="127.246094" xlink:href="#DejaVuSans-49"/>
       <use x="190.869141" xlink:href="#DejaVuSans-55"/>
       <use x="254.492188" xlink:href="#DejaVuSans-45"/>
       <use x="290.576172" xlink:href="#DejaVuSans-48"/>
       <use x="354.199219" xlink:href="#DejaVuSans-53"/>
      </g>
     </g>
    </g>
    <g id="xtick_30">
     <g id="line2d_59">
      <path clip-path="url(#p5ee367bdf8)" d="M 612.523636 401.76 
L 612.523636 51.84 
" style="fill:none;stroke:#cbcbcb;"/>
     </g>
     <g id="line2d_60"/>
    </g>
    <g id="xtick_31">
     <g id="line2d_61">
      <path clip-path="url(#p5ee367bdf8)" d="M 627.709091 401.76 
L 627.709091 51.84 
" style="fill:none;stroke:#cbcbcb;"/>
     </g>
     <g id="line2d_62"/>
    </g>
    <g id="xtick_32">
     <g id="line2d_63">
      <path clip-path="url(#p5ee367bdf8)" d="M 642.894545 401.76 
L 642.894545 51.84 
" style="fill:none;stroke:#cbcbcb;"/>
     </g>
     <g id="line2d_64"/>
    </g>
    <g id="xtick_33">
     <g id="line2d_65">
      <path clip-path="url(#p5ee367bdf8)" d="M 658.08 401.76 
L 658.08 51.84 
" style="fill:none;stroke:#cbcbcb;"/>
     </g>
     <g id="line2d_66"/>
     <g id="text_9">
      <!-- 2017-09 -->
      <g transform="translate(628.832031 415.897813)scale(0.14 -0.14)">
       <use xlink:href="#DejaVuSans-50"/>
       <use x="63.623047" xlink:href="#DejaVuSans-48"/>
       <use x="127.246094" xlink:href="#DejaVuSans-49"/>
       <use x="190.869141" xlink:href="#DejaVuSans-55"/>
       <use x="254.492188" xlink:href="#DejaVuSans-45"/>
       <use x="290.576172" xlink:href="#DejaVuSans-48"/>
       <use x="354.199219" xlink:href="#DejaVuSans-57"/>
      </g>
     </g>
    </g>
    <g id="xtick_34">
     <g id="line2d_67">
      <path clip-path="url(#p5ee367bdf8)" d="M 673.265455 401.76 
L 673.265455 51.84 
" style="fill:none;stroke:#cbcbcb;"/>
     </g>
     <g id="line2d_68"/>
    </g>
    <g id="xtick_35">
     <g id="line2d_69">
      <path clip-path="url(#p5ee367bdf8)" d="M 688.450909 401.76 
L 688.450909 51.84 
" style="fill:none;stroke:#cbcbcb;"/>
     </g>
     <g id="line2d_70"/>
    </g>
    <g id="xtick_36">
     <g id="line2d_71">
      <path clip-path="url(#p5ee367bdf8)" d="M 703.636364 401.76 
L 703.636364 51.84 
" style="fill:none;stroke:#cbcbcb;"/>
     </g>
     <g id="line2d_72"/>
    </g>
    <g id="xtick_37">
     <g id="line2d_73">
      <path clip-path="url(#p5ee367bdf8)" d="M 718.821818 401.76 
L 718.821818 51.84 
" style="fill:none;stroke:#cbcbcb;"/>
     </g>
     <g id="line2d_74"/>
     <g id="text_10">
      <!-- 2018-01 -->
      <g transform="translate(689.573849 415.897813)scale(0.14 -0.14)">
       <defs>
        <path d="M 31.78125 34.625 
Q 24.75 34.625 20.71875 30.859375 
Q 16.703125 27.09375 16.703125 20.515625 
Q 16.703125 13.921875 20.71875 10.15625 
Q 24.75 6.390625 31.78125 6.390625 
Q 38.8125 6.390625 42.859375 10.171875 
Q 46.921875 13.96875 46.921875 20.515625 
Q 46.921875 27.09375 42.890625 30.859375 
Q 38.875 34.625 31.78125 34.625 
z
M 21.921875 38.8125 
Q 15.578125 40.375 12.03125 44.71875 
Q 8.5 49.078125 8.5 55.328125 
Q 8.5 64.0625 14.71875 69.140625 
Q 20.953125 74.21875 31.78125 74.21875 
Q 42.671875 74.21875 48.875 69.140625 
Q 55.078125 64.0625 55.078125 55.328125 
Q 55.078125 49.078125 51.53125 44.71875 
Q 48 40.375 41.703125 38.8125 
Q 48.828125 37.15625 52.796875 32.3125 
Q 56.78125 27.484375 56.78125 20.515625 
Q 56.78125 9.90625 50.3125 4.234375 
Q 43.84375 -1.421875 31.78125 -1.421875 
Q 19.734375 -1.421875 13.25 4.234375 
Q 6.78125 9.90625 6.78125 20.515625 
Q 6.78125 27.484375 10.78125 32.3125 
Q 14.796875 37.15625 21.921875 38.8125 
z
M 18.3125 54.390625 
Q 18.3125 48.734375 21.84375 45.5625 
Q 25.390625 42.390625 31.78125 42.390625 
Q 38.140625 42.390625 41.71875 45.5625 
Q 45.3125 48.734375 45.3125 54.390625 
Q 45.3125 60.0625 41.71875 63.234375 
Q 38.140625 66.40625 31.78125 66.40625 
Q 25.390625 66.40625 21.84375 63.234375 
Q 18.3125 60.0625 18.3125 54.390625 
z
" id="DejaVuSans-56"/>
       </defs>
       <use xlink:href="#DejaVuSans-50"/>
       <use x="63.623047" xlink:href="#DejaVuSans-48"/>
       <use x="127.246094" xlink:href="#DejaVuSans-49"/>
       <use x="190.869141" xlink:href="#DejaVuSans-56"/>
       <use x="254.492188" xlink:href="#DejaVuSans-45"/>
       <use x="290.576172" xlink:href="#DejaVuSans-48"/>
       <use x="354.199219" xlink:href="#DejaVuSans-49"/>
      </g>
     </g>
    </g>
    <g id="xtick_38">
     <g id="line2d_75">
      <path clip-path="url(#p5ee367bdf8)" d="M 734.007273 401.76 
L 734.007273 51.84 
" style="fill:none;stroke:#cbcbcb;"/>
     </g>
     <g id="line2d_76"/>
    </g>
    <g id="xtick_39">
     <g id="line2d_77">
      <path clip-path="url(#p5ee367bdf8)" d="M 749.192727 401.76 
L 749.192727 51.84 
" style="fill:none;stroke:#cbcbcb;"/>
     </g>
     <g id="line2d_78"/>
    </g>
    <g id="xtick_40">
     <g id="line2d_79">
      <path clip-path="url(#p5ee367bdf8)" d="M 764.378182 401.76 
L 764.378182 51.84 
" style="fill:none;stroke:#cbcbcb;"/>
     </g>
     <g id="line2d_80"/>
    </g>
    <g id="xtick_41">
     <g id="line2d_81">
      <path clip-path="url(#p5ee367bdf8)" d="M 779.563636 401.76 
L 779.563636 51.84 
" style="fill:none;stroke:#cbcbcb;"/>
     </g>
     <g id="line2d_82"/>
     <g id="text_11">
      <!-- 2018-05 -->
      <g transform="translate(750.315668 415.897813)scale(0.14 -0.14)">
       <use xlink:href="#DejaVuSans-50"/>
       <use x="63.623047" xlink:href="#DejaVuSans-48"/>
       <use x="127.246094" xlink:href="#DejaVuSans-49"/>
       <use x="190.869141" xlink:href="#DejaVuSans-56"/>
       <use x="254.492188" xlink:href="#DejaVuSans-45"/>
       <use x="290.576172" xlink:href="#DejaVuSans-48"/>
       <use x="354.199219" xlink:href="#DejaVuSans-53"/>
      </g>
     </g>
    </g>
    <g id="xtick_42">
     <g id="line2d_83">
      <path clip-path="url(#p5ee367bdf8)" d="M 794.749091 401.76 
L 794.749091 51.84 
" style="fill:none;stroke:#cbcbcb;"/>
     </g>
     <g id="line2d_84"/>
    </g>
    <g id="xtick_43">
     <g id="line2d_85">
      <path clip-path="url(#p5ee367bdf8)" d="M 809.934545 401.76 
L 809.934545 51.84 
" style="fill:none;stroke:#cbcbcb;"/>
     </g>
     <g id="line2d_86"/>
    </g>
    <g id="xtick_44">
     <g id="line2d_87">
      <path clip-path="url(#p5ee367bdf8)" d="M 825.12 401.76 
L 825.12 51.84 
" style="fill:none;stroke:#cbcbcb;"/>
     </g>
     <g id="line2d_88"/>
    </g>
    <g id="xtick_45">
     <g id="line2d_89">
      <path clip-path="url(#p5ee367bdf8)" d="M 840.305455 401.76 
L 840.305455 51.84 
" style="fill:none;stroke:#cbcbcb;"/>
     </g>
     <g id="line2d_90"/>
     <g id="text_12">
      <!-- 2018-09 -->
      <g transform="translate(811.057486 415.897813)scale(0.14 -0.14)">
       <use xlink:href="#DejaVuSans-50"/>
       <use x="63.623047" xlink:href="#DejaVuSans-48"/>
       <use x="127.246094" xlink:href="#DejaVuSans-49"/>
       <use x="190.869141" xlink:href="#DejaVuSans-56"/>
       <use x="254.492188" xlink:href="#DejaVuSans-45"/>
       <use x="290.576172" xlink:href="#DejaVuSans-48"/>
       <use x="354.199219" xlink:href="#DejaVuSans-57"/>
      </g>
     </g>
    </g>
    <g id="xtick_46">
     <g id="line2d_91">
      <path clip-path="url(#p5ee367bdf8)" d="M 855.490909 401.76 
L 855.490909 51.84 
" style="fill:none;stroke:#cbcbcb;"/>
     </g>
     <g id="line2d_92"/>
    </g>
    <g id="xtick_47">
     <g id="line2d_93">
      <path clip-path="url(#p5ee367bdf8)" d="M 870.676364 401.76 
L 870.676364 51.84 
" style="fill:none;stroke:#cbcbcb;"/>
     </g>
     <g id="line2d_94"/>
    </g>
    <g id="xtick_48">
     <g id="line2d_95">
      <path clip-path="url(#p5ee367bdf8)" d="M 885.861818 401.76 
L 885.861818 51.84 
" style="fill:none;stroke:#cbcbcb;"/>
     </g>
     <g id="line2d_96"/>
    </g>
    <g id="xtick_49">
     <g id="line2d_97">
      <path clip-path="url(#p5ee367bdf8)" d="M 901.047273 401.76 
L 901.047273 51.84 
" style="fill:none;stroke:#cbcbcb;"/>
     </g>
     <g id="line2d_98"/>
     <g id="text_13">
      <!-- 2019-01 -->
      <g transform="translate(871.799304 415.897813)scale(0.14 -0.14)">
       <use xlink:href="#DejaVuSans-50"/>
       <use x="63.623047" xlink:href="#DejaVuSans-48"/>
       <use x="127.246094" xlink:href="#DejaVuSans-49"/>
       <use x="190.869141" xlink:href="#DejaVuSans-57"/>
       <use x="254.492188" xlink:href="#DejaVuSans-45"/>
       <use x="290.576172" xlink:href="#DejaVuSans-48"/>
       <use x="354.199219" xlink:href="#DejaVuSans-49"/>
      </g>
     </g>
    </g>
    <g id="xtick_50">
     <g id="line2d_99">
      <path clip-path="url(#p5ee367bdf8)" d="M 916.232727 401.76 
L 916.232727 51.84 
" style="fill:none;stroke:#cbcbcb;"/>
     </g>
     <g id="line2d_100"/>
    </g>
    <g id="xtick_51">
     <g id="line2d_101">
      <path clip-path="url(#p5ee367bdf8)" d="M 931.418182 401.76 
L 931.418182 51.84 
" style="fill:none;stroke:#cbcbcb;"/>
     </g>
     <g id="line2d_102"/>
    </g>
    <g id="xtick_52">
     <g id="line2d_103">
      <path clip-path="url(#p5ee367bdf8)" d="M 946.603636 401.76 
L 946.603636 51.84 
" style="fill:none;stroke:#cbcbcb;"/>
     </g>
     <g id="line2d_104"/>
    </g>
    <g id="xtick_53">
     <g id="line2d_105">
      <path clip-path="url(#p5ee367bdf8)" d="M 961.789091 401.76 
L 961.789091 51.84 
" style="fill:none;stroke:#cbcbcb;"/>
     </g>
     <g id="line2d_106"/>
     <g id="text_14">
      <!-- 2019-05 -->
      <g transform="translate(932.541122 415.897813)scale(0.14 -0.14)">
       <use xlink:href="#DejaVuSans-50"/>
       <use x="63.623047" xlink:href="#DejaVuSans-48"/>
       <use x="127.246094" xlink:href="#DejaVuSans-49"/>
       <use x="190.869141" xlink:href="#DejaVuSans-57"/>
       <use x="254.492188" xlink:href="#DejaVuSans-45"/>
       <use x="290.576172" xlink:href="#DejaVuSans-48"/>
       <use x="354.199219" xlink:href="#DejaVuSans-53"/>
      </g>
     </g>
    </g>
    <g id="xtick_54">
     <g id="line2d_107">
      <path clip-path="url(#p5ee367bdf8)" d="M 976.974545 401.76 
L 976.974545 51.84 
" style="fill:none;stroke:#cbcbcb;"/>
     </g>
     <g id="line2d_108"/>
    </g>
    <g id="xtick_55">
     <g id="line2d_109">
      <path clip-path="url(#p5ee367bdf8)" d="M 992.16 401.76 
L 992.16 51.84 
" style="fill:none;stroke:#cbcbcb;"/>
     </g>
     <g id="line2d_110"/>
    </g>
    <g id="xtick_56">
     <g id="line2d_111">
      <path clip-path="url(#p5ee367bdf8)" d="M 1007.345455 401.76 
L 1007.345455 51.84 
" style="fill:none;stroke:#cbcbcb;"/>
     </g>
     <g id="line2d_112"/>
    </g>
    <g id="xtick_57">
     <g id="line2d_113">
      <path clip-path="url(#p5ee367bdf8)" d="M 1022.530909 401.76 
L 1022.530909 51.84 
" style="fill:none;stroke:#cbcbcb;"/>
     </g>
     <g id="line2d_114"/>
     <g id="text_15">
      <!-- 2019-09 -->
      <g transform="translate(993.28294 415.897813)scale(0.14 -0.14)">
       <use xlink:href="#DejaVuSans-50"/>
       <use x="63.623047" xlink:href="#DejaVuSans-48"/>
       <use x="127.246094" xlink:href="#DejaVuSans-49"/>
       <use x="190.869141" xlink:href="#DejaVuSans-57"/>
       <use x="254.492188" xlink:href="#DejaVuSans-45"/>
       <use x="290.576172" xlink:href="#DejaVuSans-48"/>
       <use x="354.199219" xlink:href="#DejaVuSans-57"/>
      </g>
     </g>
    </g>
    <g id="xtick_58">
     <g id="line2d_115">
      <path clip-path="url(#p5ee367bdf8)" d="M 1037.716364 401.76 
L 1037.716364 51.84 
" style="fill:none;stroke:#cbcbcb;"/>
     </g>
     <g id="line2d_116"/>
    </g>
    <g id="xtick_59">
     <g id="line2d_117">
      <path clip-path="url(#p5ee367bdf8)" d="M 1052.901818 401.76 
L 1052.901818 51.84 
" style="fill:none;stroke:#cbcbcb;"/>
     </g>
     <g id="line2d_118"/>
    </g>
    <g id="xtick_60">
     <g id="line2d_119">
      <path clip-path="url(#p5ee367bdf8)" d="M 1068.087273 401.76 
L 1068.087273 51.84 
" style="fill:none;stroke:#cbcbcb;"/>
     </g>
     <g id="line2d_120"/>
    </g>
    <g id="xtick_61">
     <g id="line2d_121">
      <path clip-path="url(#p5ee367bdf8)" d="M 1083.272727 401.76 
L 1083.272727 51.84 
" style="fill:none;stroke:#cbcbcb;"/>
     </g>
     <g id="line2d_122"/>
     <g id="text_16">
      <!-- 2020-01 -->
      <g transform="translate(1054.024759 415.897813)scale(0.14 -0.14)">
       <use xlink:href="#DejaVuSans-50"/>
       <use x="63.623047" xlink:href="#DejaVuSans-48"/>
       <use x="127.246094" xlink:href="#DejaVuSans-50"/>
       <use x="190.869141" xlink:href="#DejaVuSans-48"/>
       <use x="254.492188" xlink:href="#DejaVuSans-45"/>
       <use x="290.576172" xlink:href="#DejaVuSans-48"/>
       <use x="354.199219" xlink:href="#DejaVuSans-49"/>
      </g>
     </g>
    </g>
    <g id="xtick_62">
     <g id="line2d_123">
      <path clip-path="url(#p5ee367bdf8)" d="M 1098.458182 401.76 
L 1098.458182 51.84 
" style="fill:none;stroke:#cbcbcb;"/>
     </g>
     <g id="line2d_124"/>
    </g>
    <g id="xtick_63">
     <g id="line2d_125">
      <path clip-path="url(#p5ee367bdf8)" d="M 1113.643636 401.76 
L 1113.643636 51.84 
" style="fill:none;stroke:#cbcbcb;"/>
     </g>
     <g id="line2d_126"/>
    </g>
    <g id="xtick_64">
     <g id="line2d_127">
      <path clip-path="url(#p5ee367bdf8)" d="M 1128.829091 401.76 
L 1128.829091 51.84 
" style="fill:none;stroke:#cbcbcb;"/>
     </g>
     <g id="line2d_128"/>
    </g>
    <g id="xtick_65">
     <g id="line2d_129">
      <path clip-path="url(#p5ee367bdf8)" d="M 1144.014545 401.76 
L 1144.014545 51.84 
" style="fill:none;stroke:#cbcbcb;"/>
     </g>
     <g id="line2d_130"/>
     <g id="text_17">
      <!-- 2020-05 -->
      <g transform="translate(1114.766577 415.897813)scale(0.14 -0.14)">
       <use xlink:href="#DejaVuSans-50"/>
       <use x="63.623047" xlink:href="#DejaVuSans-48"/>
       <use x="127.246094" xlink:href="#DejaVuSans-50"/>
       <use x="190.869141" xlink:href="#DejaVuSans-48"/>
       <use x="254.492188" xlink:href="#DejaVuSans-45"/>
       <use x="290.576172" xlink:href="#DejaVuSans-48"/>
       <use x="354.199219" xlink:href="#DejaVuSans-53"/>
      </g>
     </g>
    </g>
    <g id="xtick_66">
     <g id="line2d_131">
      <path clip-path="url(#p5ee367bdf8)" d="M 1159.2 401.76 
L 1159.2 51.84 
" style="fill:none;stroke:#cbcbcb;"/>
     </g>
     <g id="line2d_132"/>
    </g>
    <g id="xtick_67">
     <g id="line2d_133">
      <path clip-path="url(#p5ee367bdf8)" d="M 1174.385455 401.76 
L 1174.385455 51.84 
" style="fill:none;stroke:#cbcbcb;"/>
     </g>
     <g id="line2d_134"/>
    </g>
    <g id="xtick_68">
     <g id="line2d_135">
      <path clip-path="url(#p5ee367bdf8)" d="M 1189.570909 401.76 
L 1189.570909 51.84 
" style="fill:none;stroke:#cbcbcb;"/>
     </g>
     <g id="line2d_136"/>
    </g>
    <g id="xtick_69">
     <g id="line2d_137">
      <path clip-path="url(#p5ee367bdf8)" d="M 1204.756364 401.76 
L 1204.756364 51.84 
" style="fill:none;stroke:#cbcbcb;"/>
     </g>
     <g id="line2d_138"/>
     <g id="text_18">
      <!-- 2020-09 -->
      <g transform="translate(1175.508395 415.897813)scale(0.14 -0.14)">
       <use xlink:href="#DejaVuSans-50"/>
       <use x="63.623047" xlink:href="#DejaVuSans-48"/>
       <use x="127.246094" xlink:href="#DejaVuSans-50"/>
       <use x="190.869141" xlink:href="#DejaVuSans-48"/>
       <use x="254.492188" xlink:href="#DejaVuSans-45"/>
       <use x="290.576172" xlink:href="#DejaVuSans-48"/>
       <use x="354.199219" xlink:href="#DejaVuSans-57"/>
      </g>
     </g>
    </g>
    <g id="xtick_70">
     <g id="line2d_139">
      <path clip-path="url(#p5ee367bdf8)" d="M 1219.941818 401.76 
L 1219.941818 51.84 
" style="fill:none;stroke:#cbcbcb;"/>
     </g>
     <g id="line2d_140"/>
    </g>
    <g id="xtick_71">
     <g id="line2d_141">
      <path clip-path="url(#p5ee367bdf8)" d="M 1235.127273 401.76 
L 1235.127273 51.84 
" style="fill:none;stroke:#cbcbcb;"/>
     </g>
     <g id="line2d_142"/>
    </g>
    <g id="xtick_72">
     <g id="line2d_143">
      <path clip-path="url(#p5ee367bdf8)" d="M 1250.312727 401.76 
L 1250.312727 51.84 
" style="fill:none;stroke:#cbcbcb;"/>
     </g>
     <g id="line2d_144"/>
    </g>
    <g id="xtick_73">
     <g id="line2d_145">
      <path clip-path="url(#p5ee367bdf8)" d="M 1265.498182 401.76 
L 1265.498182 51.84 
" style="fill:none;stroke:#cbcbcb;"/>
     </g>
     <g id="line2d_146"/>
     <g id="text_19">
      <!-- 2021-01 -->
      <g transform="translate(1236.250213 415.897813)scale(0.14 -0.14)">
       <use xlink:href="#DejaVuSans-50"/>
       <use x="63.623047" xlink:href="#DejaVuSans-48"/>
       <use x="127.246094" xlink:href="#DejaVuSans-50"/>
       <use x="190.869141" xlink:href="#DejaVuSans-49"/>
       <use x="254.492188" xlink:href="#DejaVuSans-45"/>
       <use x="290.576172" xlink:href="#DejaVuSans-48"/>
       <use x="354.199219" xlink:href="#DejaVuSans-49"/>
      </g>
     </g>
    </g>
    <g id="xtick_74">
     <g id="line2d_147">
      <path clip-path="url(#p5ee367bdf8)" d="M 1280.683636 401.76 
L 1280.683636 51.84 
" style="fill:none;stroke:#cbcbcb;"/>
     </g>
     <g id="line2d_148"/>
    </g>
    <g id="xtick_75">
     <g id="line2d_149">
      <path clip-path="url(#p5ee367bdf8)" d="M 1295.869091 401.76 
L 1295.869091 51.84 
" style="fill:none;stroke:#cbcbcb;"/>
     </g>
     <g id="line2d_150"/>
    </g>
    <g id="xtick_76">
     <g id="line2d_151">
      <path clip-path="url(#p5ee367bdf8)" d="M 1311.054545 401.76 
L 1311.054545 51.84 
" style="fill:none;stroke:#cbcbcb;"/>
     </g>
     <g id="line2d_152"/>
    </g>
    <g id="text_20">
     <!-- Time in months -->
     <g transform="translate(676.413375 435.57475)scale(0.168 -0.168)">
      <defs>
       <path d="M -0.296875 72.90625 
L 61.375 72.90625 
L 61.375 64.59375 
L 35.5 64.59375 
L 35.5 0 
L 25.59375 0 
L 25.59375 64.59375 
L -0.296875 64.59375 
z
" id="DejaVuSans-84"/>
       <path d="M 9.421875 54.6875 
L 18.40625 54.6875 
L 18.40625 0 
L 9.421875 0 
z
M 9.421875 75.984375 
L 18.40625 75.984375 
L 18.40625 64.59375 
L 9.421875 64.59375 
z
" id="DejaVuSans-105"/>
       <path d="M 52 44.1875 
Q 55.375 50.25 60.0625 53.125 
Q 64.75 56 71.09375 56 
Q 79.640625 56 84.28125 50.015625 
Q 88.921875 44.046875 88.921875 33.015625 
L 88.921875 0 
L 79.890625 0 
L 79.890625 32.71875 
Q 79.890625 40.578125 77.09375 44.375 
Q 74.3125 48.1875 68.609375 48.1875 
Q 61.625 48.1875 57.5625 43.546875 
Q 53.515625 38.921875 53.515625 30.90625 
L 53.515625 0 
L 44.484375 0 
L 44.484375 32.71875 
Q 44.484375 40.625 41.703125 44.40625 
Q 38.921875 48.1875 33.109375 48.1875 
Q 26.21875 48.1875 22.15625 43.53125 
Q 18.109375 38.875 18.109375 30.90625 
L 18.109375 0 
L 9.078125 0 
L 9.078125 54.6875 
L 18.109375 54.6875 
L 18.109375 46.1875 
Q 21.1875 51.21875 25.484375 53.609375 
Q 29.78125 56 35.6875 56 
Q 41.65625 56 45.828125 52.96875 
Q 50 49.953125 52 44.1875 
z
" id="DejaVuSans-109"/>
       <path d="M 56.203125 29.59375 
L 56.203125 25.203125 
L 14.890625 25.203125 
Q 15.484375 15.921875 20.484375 11.0625 
Q 25.484375 6.203125 34.421875 6.203125 
Q 39.59375 6.203125 44.453125 7.46875 
Q 49.3125 8.734375 54.109375 11.28125 
L 54.109375 2.78125 
Q 49.265625 0.734375 44.1875 -0.34375 
Q 39.109375 -1.421875 33.890625 -1.421875 
Q 20.796875 -1.421875 13.15625 6.1875 
Q 5.515625 13.8125 5.515625 26.8125 
Q 5.515625 40.234375 12.765625 48.109375 
Q 20.015625 56 32.328125 56 
Q 43.359375 56 49.78125 48.890625 
Q 56.203125 41.796875 56.203125 29.59375 
z
M 47.21875 32.234375 
Q 47.125 39.59375 43.09375 43.984375 
Q 39.0625 48.390625 32.421875 48.390625 
Q 24.90625 48.390625 20.390625 44.140625 
Q 15.875 39.890625 15.1875 32.171875 
z
" id="DejaVuSans-101"/>
       <path id="DejaVuSans-32"/>
       <path d="M 54.890625 33.015625 
L 54.890625 0 
L 45.90625 0 
L 45.90625 32.71875 
Q 45.90625 40.484375 42.875 44.328125 
Q 39.84375 48.1875 33.796875 48.1875 
Q 26.515625 48.1875 22.3125 43.546875 
Q 18.109375 38.921875 18.109375 30.90625 
L 18.109375 0 
L 9.078125 0 
L 9.078125 54.6875 
L 18.109375 54.6875 
L 18.109375 46.1875 
Q 21.34375 51.125 25.703125 53.5625 
Q 30.078125 56 35.796875 56 
Q 45.21875 56 50.046875 50.171875 
Q 54.890625 44.34375 54.890625 33.015625 
z
" id="DejaVuSans-110"/>
       <path d="M 30.609375 48.390625 
Q 23.390625 48.390625 19.1875 42.75 
Q 14.984375 37.109375 14.984375 27.296875 
Q 14.984375 17.484375 19.15625 11.84375 
Q 23.34375 6.203125 30.609375 6.203125 
Q 37.796875 6.203125 41.984375 11.859375 
Q 46.1875 17.53125 46.1875 27.296875 
Q 46.1875 37.015625 41.984375 42.703125 
Q 37.796875 48.390625 30.609375 48.390625 
z
M 30.609375 56 
Q 42.328125 56 49.015625 48.375 
Q 55.71875 40.765625 55.71875 27.296875 
Q 55.71875 13.875 49.015625 6.21875 
Q 42.328125 -1.421875 30.609375 -1.421875 
Q 18.84375 -1.421875 12.171875 6.21875 
Q 5.515625 13.875 5.515625 27.296875 
Q 5.515625 40.765625 12.171875 48.375 
Q 18.84375 56 30.609375 56 
z
" id="DejaVuSans-111"/>
       <path d="M 18.3125 70.21875 
L 18.3125 54.6875 
L 36.8125 54.6875 
L 36.8125 47.703125 
L 18.3125 47.703125 
L 18.3125 18.015625 
Q 18.3125 11.328125 20.140625 9.421875 
Q 21.96875 7.515625 27.59375 7.515625 
L 36.8125 7.515625 
L 36.8125 0 
L 27.59375 0 
Q 17.1875 0 13.234375 3.875 
Q 9.28125 7.765625 9.28125 18.015625 
L 9.28125 47.703125 
L 2.6875 47.703125 
L 2.6875 54.6875 
L 9.28125 54.6875 
L 9.28125 70.21875 
z
" id="DejaVuSans-116"/>
       <path d="M 54.890625 33.015625 
L 54.890625 0 
L 45.90625 0 
L 45.90625 32.71875 
Q 45.90625 40.484375 42.875 44.328125 
Q 39.84375 48.1875 33.796875 48.1875 
Q 26.515625 48.1875 22.3125 43.546875 
Q 18.109375 38.921875 18.109375 30.90625 
L 18.109375 0 
L 9.078125 0 
L 9.078125 75.984375 
L 18.109375 75.984375 
L 18.109375 46.1875 
Q 21.34375 51.125 25.703125 53.5625 
Q 30.078125 56 35.796875 56 
Q 45.21875 56 50.046875 50.171875 
Q 54.890625 44.34375 54.890625 33.015625 
z
" id="DejaVuSans-104"/>
       <path d="M 44.28125 53.078125 
L 44.28125 44.578125 
Q 40.484375 46.53125 36.375 47.5 
Q 32.28125 48.484375 27.875 48.484375 
Q 21.1875 48.484375 17.84375 46.4375 
Q 14.5 44.390625 14.5 40.28125 
Q 14.5 37.15625 16.890625 35.375 
Q 19.28125 33.59375 26.515625 31.984375 
L 29.59375 31.296875 
Q 39.15625 29.25 43.1875 25.515625 
Q 47.21875 21.78125 47.21875 15.09375 
Q 47.21875 7.46875 41.1875 3.015625 
Q 35.15625 -1.421875 24.609375 -1.421875 
Q 20.21875 -1.421875 15.453125 -0.5625 
Q 10.6875 0.296875 5.421875 2 
L 5.421875 11.28125 
Q 10.40625 8.6875 15.234375 7.390625 
Q 20.0625 6.109375 24.8125 6.109375 
Q 31.15625 6.109375 34.5625 8.28125 
Q 37.984375 10.453125 37.984375 14.40625 
Q 37.984375 18.0625 35.515625 20.015625 
Q 33.0625 21.96875 24.703125 23.78125 
L 21.578125 24.515625 
Q 13.234375 26.265625 9.515625 29.90625 
Q 5.8125 33.546875 5.8125 39.890625 
Q 5.8125 47.609375 11.28125 51.796875 
Q 16.75 56 26.8125 56 
Q 31.78125 56 36.171875 55.265625 
Q 40.578125 54.546875 44.28125 53.078125 
z
" id="DejaVuSans-115"/>
      </defs>
      <use xlink:href="#DejaVuSans-84"/>
      <use x="57.958984" xlink:href="#DejaVuSans-105"/>
      <use x="85.742188" xlink:href="#DejaVuSans-109"/>
      <use x="183.154297" xlink:href="#DejaVuSans-101"/>
      <use x="244.677734" xlink:href="#DejaVuSans-32"/>
      <use x="276.464844" xlink:href="#DejaVuSans-105"/>
      <use x="304.248047" xlink:href="#DejaVuSans-110"/>
      <use x="367.626953" xlink:href="#DejaVuSans-32"/>
      <use x="399.414062" xlink:href="#DejaVuSans-109"/>
      <use x="496.826172" xlink:href="#DejaVuSans-111"/>
      <use x="558.007812" xlink:href="#DejaVuSans-110"/>
      <use x="621.386719" xlink:href="#DejaVuSans-116"/>
      <use x="660.595703" xlink:href="#DejaVuSans-104"/>
      <use x="723.974609" xlink:href="#DejaVuSans-115"/>
     </g>
    </g>
   </g>
   <g id="matplotlib.axis_2">
    <g id="ytick_1">
     <g id="line2d_153">
      <path clip-path="url(#p5ee367bdf8)" d="M 115.2 330.868171 
L 1368 330.868171 
" style="fill:none;stroke:#cbcbcb;"/>
     </g>
     <g id="line2d_154"/>
     <g id="text_21">
      <!-- 400 -->
      <g transform="translate(84.9775 336.187078)scale(0.14 -0.14)">
       <defs>
        <path d="M 37.796875 64.3125 
L 12.890625 25.390625 
L 37.796875 25.390625 
z
M 35.203125 72.90625 
L 47.609375 72.90625 
L 47.609375 25.390625 
L 58.015625 25.390625 
L 58.015625 17.1875 
L 47.609375 17.1875 
L 47.609375 0 
L 37.796875 0 
L 37.796875 17.1875 
L 4.890625 17.1875 
L 4.890625 26.703125 
z
" id="DejaVuSans-52"/>
       </defs>
       <use xlink:href="#DejaVuSans-52"/>
       <use x="63.623047" xlink:href="#DejaVuSans-48"/>
       <use x="127.246094" xlink:href="#DejaVuSans-48"/>
      </g>
     </g>
    </g>
    <g id="ytick_2">
     <g id="line2d_155">
      <path clip-path="url(#p5ee367bdf8)" d="M 115.2 257.060958 
L 1368 257.060958 
" style="fill:none;stroke:#cbcbcb;"/>
     </g>
     <g id="line2d_156"/>
     <g id="text_22">
      <!-- 600 -->
      <g transform="translate(84.9775 262.379864)scale(0.14 -0.14)">
       <use xlink:href="#DejaVuSans-54"/>
       <use x="63.623047" xlink:href="#DejaVuSans-48"/>
       <use x="127.246094" xlink:href="#DejaVuSans-48"/>
      </g>
     </g>
    </g>
    <g id="ytick_3">
     <g id="line2d_157">
      <path clip-path="url(#p5ee367bdf8)" d="M 115.2 183.253744 
L 1368 183.253744 
" style="fill:none;stroke:#cbcbcb;"/>
     </g>
     <g id="line2d_158"/>
     <g id="text_23">
      <!-- 800 -->
      <g transform="translate(84.9775 188.57265)scale(0.14 -0.14)">
       <use xlink:href="#DejaVuSans-56"/>
       <use x="63.623047" xlink:href="#DejaVuSans-48"/>
       <use x="127.246094" xlink:href="#DejaVuSans-48"/>
      </g>
     </g>
    </g>
    <g id="ytick_4">
     <g id="line2d_159">
      <path clip-path="url(#p5ee367bdf8)" d="M 115.2 109.44653 
L 1368 109.44653 
" style="fill:none;stroke:#cbcbcb;"/>
     </g>
     <g id="line2d_160"/>
     <g id="text_24">
      <!-- 1000 -->
      <g transform="translate(76.07 114.765437)scale(0.14 -0.14)">
       <use xlink:href="#DejaVuSans-49"/>
       <use x="63.623047" xlink:href="#DejaVuSans-48"/>
       <use x="127.246094" xlink:href="#DejaVuSans-48"/>
       <use x="190.869141" xlink:href="#DejaVuSans-48"/>
      </g>
     </g>
    </g>
    <g id="text_25">
     <!-- Numbers of injured in accidents -->
     <g transform="translate(68.576125 360.644813)rotate(-90)scale(0.168 -0.168)">
      <defs>
       <path d="M 9.8125 72.90625 
L 23.09375 72.90625 
L 55.421875 11.921875 
L 55.421875 72.90625 
L 64.984375 72.90625 
L 64.984375 0 
L 51.703125 0 
L 19.390625 60.984375 
L 19.390625 0 
L 9.8125 0 
z
" id="DejaVuSans-78"/>
       <path d="M 8.5 21.578125 
L 8.5 54.6875 
L 17.484375 54.6875 
L 17.484375 21.921875 
Q 17.484375 14.15625 20.5 10.265625 
Q 23.53125 6.390625 29.59375 6.390625 
Q 36.859375 6.390625 41.078125 11.03125 
Q 45.3125 15.671875 45.3125 23.6875 
L 45.3125 54.6875 
L 54.296875 54.6875 
L 54.296875 0 
L 45.3125 0 
L 45.3125 8.40625 
Q 42.046875 3.421875 37.71875 1 
Q 33.40625 -1.421875 27.6875 -1.421875 
Q 18.265625 -1.421875 13.375 4.4375 
Q 8.5 10.296875 8.5 21.578125 
z
M 31.109375 56 
z
" id="DejaVuSans-117"/>
       <path d="M 48.6875 27.296875 
Q 48.6875 37.203125 44.609375 42.84375 
Q 40.53125 48.484375 33.40625 48.484375 
Q 26.265625 48.484375 22.1875 42.84375 
Q 18.109375 37.203125 18.109375 27.296875 
Q 18.109375 17.390625 22.1875 11.75 
Q 26.265625 6.109375 33.40625 6.109375 
Q 40.53125 6.109375 44.609375 11.75 
Q 48.6875 17.390625 48.6875 27.296875 
z
M 18.109375 46.390625 
Q 20.953125 51.265625 25.265625 53.625 
Q 29.59375 56 35.59375 56 
Q 45.5625 56 51.78125 48.09375 
Q 58.015625 40.1875 58.015625 27.296875 
Q 58.015625 14.40625 51.78125 6.484375 
Q 45.5625 -1.421875 35.59375 -1.421875 
Q 29.59375 -1.421875 25.265625 0.953125 
Q 20.953125 3.328125 18.109375 8.203125 
L 18.109375 0 
L 9.078125 0 
L 9.078125 75.984375 
L 18.109375 75.984375 
z
" id="DejaVuSans-98"/>
       <path d="M 41.109375 46.296875 
Q 39.59375 47.171875 37.8125 47.578125 
Q 36.03125 48 33.890625 48 
Q 26.265625 48 22.1875 43.046875 
Q 18.109375 38.09375 18.109375 28.8125 
L 18.109375 0 
L 9.078125 0 
L 9.078125 54.6875 
L 18.109375 54.6875 
L 18.109375 46.1875 
Q 20.953125 51.171875 25.484375 53.578125 
Q 30.03125 56 36.53125 56 
Q 37.453125 56 38.578125 55.875 
Q 39.703125 55.765625 41.0625 55.515625 
z
" id="DejaVuSans-114"/>
       <path d="M 37.109375 75.984375 
L 37.109375 68.5 
L 28.515625 68.5 
Q 23.6875 68.5 21.796875 66.546875 
Q 19.921875 64.59375 19.921875 59.515625 
L 19.921875 54.6875 
L 34.71875 54.6875 
L 34.71875 47.703125 
L 19.921875 47.703125 
L 19.921875 0 
L 10.890625 0 
L 10.890625 47.703125 
L 2.296875 47.703125 
L 2.296875 54.6875 
L 10.890625 54.6875 
L 10.890625 58.5 
Q 10.890625 67.625 15.140625 71.796875 
Q 19.390625 75.984375 28.609375 75.984375 
z
" id="DejaVuSans-102"/>
       <path d="M 9.421875 54.6875 
L 18.40625 54.6875 
L 18.40625 -0.984375 
Q 18.40625 -11.421875 14.421875 -16.109375 
Q 10.453125 -20.796875 1.609375 -20.796875 
L -1.8125 -20.796875 
L -1.8125 -13.1875 
L 0.59375 -13.1875 
Q 5.71875 -13.1875 7.5625 -10.8125 
Q 9.421875 -8.453125 9.421875 -0.984375 
z
M 9.421875 75.984375 
L 18.40625 75.984375 
L 18.40625 64.59375 
L 9.421875 64.59375 
z
" id="DejaVuSans-106"/>
       <path d="M 45.40625 46.390625 
L 45.40625 75.984375 
L 54.390625 75.984375 
L 54.390625 0 
L 45.40625 0 
L 45.40625 8.203125 
Q 42.578125 3.328125 38.25 0.953125 
Q 33.9375 -1.421875 27.875 -1.421875 
Q 17.96875 -1.421875 11.734375 6.484375 
Q 5.515625 14.40625 5.515625 27.296875 
Q 5.515625 40.1875 11.734375 48.09375 
Q 17.96875 56 27.875 56 
Q 33.9375 56 38.25 53.625 
Q 42.578125 51.265625 45.40625 46.390625 
z
M 14.796875 27.296875 
Q 14.796875 17.390625 18.875 11.75 
Q 22.953125 6.109375 30.078125 6.109375 
Q 37.203125 6.109375 41.296875 11.75 
Q 45.40625 17.390625 45.40625 27.296875 
Q 45.40625 37.203125 41.296875 42.84375 
Q 37.203125 48.484375 30.078125 48.484375 
Q 22.953125 48.484375 18.875 42.84375 
Q 14.796875 37.203125 14.796875 27.296875 
z
" id="DejaVuSans-100"/>
       <path d="M 34.28125 27.484375 
Q 23.390625 27.484375 19.1875 25 
Q 14.984375 22.515625 14.984375 16.5 
Q 14.984375 11.71875 18.140625 8.90625 
Q 21.296875 6.109375 26.703125 6.109375 
Q 34.1875 6.109375 38.703125 11.40625 
Q 43.21875 16.703125 43.21875 25.484375 
L 43.21875 27.484375 
z
M 52.203125 31.203125 
L 52.203125 0 
L 43.21875 0 
L 43.21875 8.296875 
Q 40.140625 3.328125 35.546875 0.953125 
Q 30.953125 -1.421875 24.3125 -1.421875 
Q 15.921875 -1.421875 10.953125 3.296875 
Q 6 8.015625 6 15.921875 
Q 6 25.140625 12.171875 29.828125 
Q 18.359375 34.515625 30.609375 34.515625 
L 43.21875 34.515625 
L 43.21875 35.40625 
Q 43.21875 41.609375 39.140625 45 
Q 35.0625 48.390625 27.6875 48.390625 
Q 23 48.390625 18.546875 47.265625 
Q 14.109375 46.140625 10.015625 43.890625 
L 10.015625 52.203125 
Q 14.9375 54.109375 19.578125 55.046875 
Q 24.21875 56 28.609375 56 
Q 40.484375 56 46.34375 49.84375 
Q 52.203125 43.703125 52.203125 31.203125 
z
" id="DejaVuSans-97"/>
       <path d="M 48.78125 52.59375 
L 48.78125 44.1875 
Q 44.96875 46.296875 41.140625 47.34375 
Q 37.3125 48.390625 33.40625 48.390625 
Q 24.65625 48.390625 19.8125 42.84375 
Q 14.984375 37.3125 14.984375 27.296875 
Q 14.984375 17.28125 19.8125 11.734375 
Q 24.65625 6.203125 33.40625 6.203125 
Q 37.3125 6.203125 41.140625 7.25 
Q 44.96875 8.296875 48.78125 10.40625 
L 48.78125 2.09375 
Q 45.015625 0.34375 40.984375 -0.53125 
Q 36.96875 -1.421875 32.421875 -1.421875 
Q 20.0625 -1.421875 12.78125 6.34375 
Q 5.515625 14.109375 5.515625 27.296875 
Q 5.515625 40.671875 12.859375 48.328125 
Q 20.21875 56 33.015625 56 
Q 37.15625 56 41.109375 55.140625 
Q 45.0625 54.296875 48.78125 52.59375 
z
" id="DejaVuSans-99"/>
      </defs>
      <use xlink:href="#DejaVuSans-78"/>
      <use x="74.804688" xlink:href="#DejaVuSans-117"/>
      <use x="138.183594" xlink:href="#DejaVuSans-109"/>
      <use x="235.595703" xlink:href="#DejaVuSans-98"/>
      <use x="299.072266" xlink:href="#DejaVuSans-101"/>
      <use x="360.595703" xlink:href="#DejaVuSans-114"/>
      <use x="401.708984" xlink:href="#DejaVuSans-115"/>
      <use x="453.808594" xlink:href="#DejaVuSans-32"/>
      <use x="485.595703" xlink:href="#DejaVuSans-111"/>
      <use x="546.777344" xlink:href="#DejaVuSans-102"/>
      <use x="581.982422" xlink:href="#DejaVuSans-32"/>
      <use x="613.769531" xlink:href="#DejaVuSans-105"/>
      <use x="641.552734" xlink:href="#DejaVuSans-110"/>
      <use x="704.931641" xlink:href="#DejaVuSans-106"/>
      <use x="732.714844" xlink:href="#DejaVuSans-117"/>
      <use x="796.09375" xlink:href="#DejaVuSans-114"/>
      <use x="834.957031" xlink:href="#DejaVuSans-101"/>
      <use x="896.480469" xlink:href="#DejaVuSans-100"/>
      <use x="959.957031" xlink:href="#DejaVuSans-32"/>
      <use x="991.744141" xlink:href="#DejaVuSans-105"/>
      <use x="1019.527344" xlink:href="#DejaVuSans-110"/>
      <use x="1082.90625" xlink:href="#DejaVuSans-32"/>
      <use x="1114.693359" xlink:href="#DejaVuSans-97"/>
      <use x="1175.972656" xlink:href="#DejaVuSans-99"/>
      <use x="1230.953125" xlink:href="#DejaVuSans-99"/>
      <use x="1285.933594" xlink:href="#DejaVuSans-105"/>
      <use x="1313.716797" xlink:href="#DejaVuSans-100"/>
      <use x="1377.193359" xlink:href="#DejaVuSans-101"/>
      <use x="1438.716797" xlink:href="#DejaVuSans-110"/>
      <use x="1502.095703" xlink:href="#DejaVuSans-116"/>
      <use x="1541.304688" xlink:href="#DejaVuSans-115"/>
     </g>
    </g>
   </g>
   <g id="LineCollection_1">
    <path clip-path="url(#p5ee367bdf8)" d="M 172.145455 176.305183 
L 1311.054545 176.305183 
" style="fill:none;stroke:#008fd5;stroke-width:4;"/>
   </g>
   <g id="line2d_161">
    <path clip-path="url(#p5ee367bdf8)" d="M 172.145455 178.825311 
L 187.330909 205.395908 
L 202.516364 190.634465 
L 217.701818 167.016157 
L 232.887273 92.839907 
L 248.072727 130.850622 
L 263.258182 143.028812 
L 278.443636 107.970386 
L 293.629091 109.077494 
L 308.814545 139.707488 
L 324 127.529298 
L 339.185455 67.745455 
L 354.370909 192.479646 
L 369.556364 197.277115 
L 384.741818 199.491331 
L 399.927273 195.062898 
L 415.112727 165.170977 
L 430.298182 195.431934 
L 445.483636 178.087239 
L 460.669091 153.361822 
L 475.854545 115.351107 
L 491.04 164.432904 
L 506.225455 182.515672 
L 521.410909 195.062898 
L 536.596364 251.525417 
L 551.781818 240.823371 
L 566.967273 199.122295 
L 582.152727 217.205062 
L 597.338182 186.944105 
L 612.523636 179.932419 
L 627.709091 207.979161 
L 642.894545 158.159291 
L 658.08 145.243029 
L 673.265455 140.076524 
L 688.450909 137.493271 
L 703.636364 141.921704 
L 718.821818 219.788315 
L 734.007273 261.120354 
L 749.192727 212.407593 
L 764.378182 214.62181 
L 779.563636 135.648091 
L 794.749091 147.457245 
L 809.934545 201.705547 
L 825.12 142.659776 
L 840.305455 116.458216 
L 855.490909 102.803881 
L 870.676364 134.171947 
L 885.861818 121.993757 
L 901.047273 212.407593 
L 916.232727 211.300485 
L 931.418182 182.146636 
L 946.603636 212.407593 
L 961.789091 174.027842 
L 976.974545 149.302426 
L 992.16 186.206032 
L 1007.345455 136.755199 
L 1022.530909 123.100865 
L 1037.716364 106.125206 
L 1052.901818 113.505927 
L 1068.087273 86.566294 
L 1083.272727 140.44556 
L 1098.458182 183.991816 
L 1113.643636 206.872052 
L 1128.829091 385.854545 
L 1144.014545 346.736722 
L 1159.2 245.989876 
L 1174.385455 194.693862 
L 1189.570909 160.373508 
L 1204.756364 137.862308 
L 1219.941818 159.266399 
L 1235.127273 176.611095 
L 1250.312727 185.46796 
L 1265.498182 279.941194 
L 1280.683636 265.917823 
L 1295.869091 202.443619 
L 1311.054545 221.264459 
" style="fill:none;stroke:#008000;stroke-width:4;"/>
    <defs>
     <path d="M 0 3 
C 0.795609 3 1.55874 2.683901 2.12132 2.12132 
C 2.683901 1.55874 3 0.795609 3 0 
C 3 -0.795609 2.683901 -1.55874 2.12132 -2.12132 
C 1.55874 -2.683901 0.795609 -3 0 -3 
C -0.795609 -3 -1.55874 -2.683901 -2.12132 -2.12132 
C -2.683901 -1.55874 -3 -0.795609 -3 0 
C -3 0.795609 -2.683901 1.55874 -2.12132 2.12132 
C -1.55874 2.683901 -0.795609 3 0 3 
z
" id="m1a3dad6471" style="stroke:#008000;"/>
    </defs>
    <g clip-path="url(#p5ee367bdf8)">
     <use style="fill:#008000;stroke:#008000;" x="172.145455" xlink:href="#m1a3dad6471" y="178.825311"/>
     <use style="fill:#008000;stroke:#008000;" x="187.330909" xlink:href="#m1a3dad6471" y="205.395908"/>
     <use style="fill:#008000;stroke:#008000;" x="202.516364" xlink:href="#m1a3dad6471" y="190.634465"/>
     <use style="fill:#008000;stroke:#008000;" x="217.701818" xlink:href="#m1a3dad6471" y="167.016157"/>
     <use style="fill:#008000;stroke:#008000;" x="232.887273" xlink:href="#m1a3dad6471" y="92.839907"/>
     <use style="fill:#008000;stroke:#008000;" x="248.072727" xlink:href="#m1a3dad6471" y="130.850622"/>
     <use style="fill:#008000;stroke:#008000;" x="263.258182" xlink:href="#m1a3dad6471" y="143.028812"/>
     <use style="fill:#008000;stroke:#008000;" x="278.443636" xlink:href="#m1a3dad6471" y="107.970386"/>
     <use style="fill:#008000;stroke:#008000;" x="293.629091" xlink:href="#m1a3dad6471" y="109.077494"/>
     <use style="fill:#008000;stroke:#008000;" x="308.814545" xlink:href="#m1a3dad6471" y="139.707488"/>
     <use style="fill:#008000;stroke:#008000;" x="324" xlink:href="#m1a3dad6471" y="127.529298"/>
     <use style="fill:#008000;stroke:#008000;" x="339.185455" xlink:href="#m1a3dad6471" y="67.745455"/>
     <use style="fill:#008000;stroke:#008000;" x="354.370909" xlink:href="#m1a3dad6471" y="192.479646"/>
     <use style="fill:#008000;stroke:#008000;" x="369.556364" xlink:href="#m1a3dad6471" y="197.277115"/>
     <use style="fill:#008000;stroke:#008000;" x="384.741818" xlink:href="#m1a3dad6471" y="199.491331"/>
     <use style="fill:#008000;stroke:#008000;" x="399.927273" xlink:href="#m1a3dad6471" y="195.062898"/>
     <use style="fill:#008000;stroke:#008000;" x="415.112727" xlink:href="#m1a3dad6471" y="165.170977"/>
     <use style="fill:#008000;stroke:#008000;" x="430.298182" xlink:href="#m1a3dad6471" y="195.431934"/>
     <use style="fill:#008000;stroke:#008000;" x="445.483636" xlink:href="#m1a3dad6471" y="178.087239"/>
     <use style="fill:#008000;stroke:#008000;" x="460.669091" xlink:href="#m1a3dad6471" y="153.361822"/>
     <use style="fill:#008000;stroke:#008000;" x="475.854545" xlink:href="#m1a3dad6471" y="115.351107"/>
     <use style="fill:#008000;stroke:#008000;" x="491.04" xlink:href="#m1a3dad6471" y="164.432904"/>
     <use style="fill:#008000;stroke:#008000;" x="506.225455" xlink:href="#m1a3dad6471" y="182.515672"/>
     <use style="fill:#008000;stroke:#008000;" x="521.410909" xlink:href="#m1a3dad6471" y="195.062898"/>
     <use style="fill:#008000;stroke:#008000;" x="536.596364" xlink:href="#m1a3dad6471" y="251.525417"/>
     <use style="fill:#008000;stroke:#008000;" x="551.781818" xlink:href="#m1a3dad6471" y="240.823371"/>
     <use style="fill:#008000;stroke:#008000;" x="566.967273" xlink:href="#m1a3dad6471" y="199.122295"/>
     <use style="fill:#008000;stroke:#008000;" x="582.152727" xlink:href="#m1a3dad6471" y="217.205062"/>
     <use style="fill:#008000;stroke:#008000;" x="597.338182" xlink:href="#m1a3dad6471" y="186.944105"/>
     <use style="fill:#008000;stroke:#008000;" x="612.523636" xlink:href="#m1a3dad6471" y="179.932419"/>
     <use style="fill:#008000;stroke:#008000;" x="627.709091" xlink:href="#m1a3dad6471" y="207.979161"/>
     <use style="fill:#008000;stroke:#008000;" x="642.894545" xlink:href="#m1a3dad6471" y="158.159291"/>
     <use style="fill:#008000;stroke:#008000;" x="658.08" xlink:href="#m1a3dad6471" y="145.243029"/>
     <use style="fill:#008000;stroke:#008000;" x="673.265455" xlink:href="#m1a3dad6471" y="140.076524"/>
     <use style="fill:#008000;stroke:#008000;" x="688.450909" xlink:href="#m1a3dad6471" y="137.493271"/>
     <use style="fill:#008000;stroke:#008000;" x="703.636364" xlink:href="#m1a3dad6471" y="141.921704"/>
     <use style="fill:#008000;stroke:#008000;" x="718.821818" xlink:href="#m1a3dad6471" y="219.788315"/>
     <use style="fill:#008000;stroke:#008000;" x="734.007273" xlink:href="#m1a3dad6471" y="261.120354"/>
     <use style="fill:#008000;stroke:#008000;" x="749.192727" xlink:href="#m1a3dad6471" y="212.407593"/>
     <use style="fill:#008000;stroke:#008000;" x="764.378182" xlink:href="#m1a3dad6471" y="214.62181"/>
     <use style="fill:#008000;stroke:#008000;" x="779.563636" xlink:href="#m1a3dad6471" y="135.648091"/>
     <use style="fill:#008000;stroke:#008000;" x="794.749091" xlink:href="#m1a3dad6471" y="147.457245"/>
     <use style="fill:#008000;stroke:#008000;" x="809.934545" xlink:href="#m1a3dad6471" y="201.705547"/>
     <use style="fill:#008000;stroke:#008000;" x="825.12" xlink:href="#m1a3dad6471" y="142.659776"/>
     <use style="fill:#008000;stroke:#008000;" x="840.305455" xlink:href="#m1a3dad6471" y="116.458216"/>
     <use style="fill:#008000;stroke:#008000;" x="855.490909" xlink:href="#m1a3dad6471" y="102.803881"/>
     <use style="fill:#008000;stroke:#008000;" x="870.676364" xlink:href="#m1a3dad6471" y="134.171947"/>
     <use style="fill:#008000;stroke:#008000;" x="885.861818" xlink:href="#m1a3dad6471" y="121.993757"/>
     <use style="fill:#008000;stroke:#008000;" x="901.047273" xlink:href="#m1a3dad6471" y="212.407593"/>
     <use style="fill:#008000;stroke:#008000;" x="916.232727" xlink:href="#m1a3dad6471" y="211.300485"/>
     <use style="fill:#008000;stroke:#008000;" x="931.418182" xlink:href="#m1a3dad6471" y="182.146636"/>
     <use style="fill:#008000;stroke:#008000;" x="946.603636" xlink:href="#m1a3dad6471" y="212.407593"/>
     <use style="fill:#008000;stroke:#008000;" x="961.789091" xlink:href="#m1a3dad6471" y="174.027842"/>
     <use style="fill:#008000;stroke:#008000;" x="976.974545" xlink:href="#m1a3dad6471" y="149.302426"/>
     <use style="fill:#008000;stroke:#008000;" x="992.16" xlink:href="#m1a3dad6471" y="186.206032"/>
     <use style="fill:#008000;stroke:#008000;" x="1007.345455" xlink:href="#m1a3dad6471" y="136.755199"/>
     <use style="fill:#008000;stroke:#008000;" x="1022.530909" xlink:href="#m1a3dad6471" y="123.100865"/>
     <use style="fill:#008000;stroke:#008000;" x="1037.716364" xlink:href="#m1a3dad6471" y="106.125206"/>
     <use style="fill:#008000;stroke:#008000;" x="1052.901818" xlink:href="#m1a3dad6471" y="113.505927"/>
     <use style="fill:#008000;stroke:#008000;" x="1068.087273" xlink:href="#m1a3dad6471" y="86.566294"/>
     <use style="fill:#008000;stroke:#008000;" x="1083.272727" xlink:href="#m1a3dad6471" y="140.44556"/>
     <use style="fill:#008000;stroke:#008000;" x="1098.458182" xlink:href="#m1a3dad6471" y="183.991816"/>
     <use style="fill:#008000;stroke:#008000;" x="1113.643636" xlink:href="#m1a3dad6471" y="206.872052"/>
     <use style="fill:#008000;stroke:#008000;" x="1128.829091" xlink:href="#m1a3dad6471" y="385.854545"/>
     <use style="fill:#008000;stroke:#008000;" x="1144.014545" xlink:href="#m1a3dad6471" y="346.736722"/>
     <use style="fill:#008000;stroke:#008000;" x="1159.2" xlink:href="#m1a3dad6471" y="245.989876"/>
     <use style="fill:#008000;stroke:#008000;" x="1174.385455" xlink:href="#m1a3dad6471" y="194.693862"/>
     <use style="fill:#008000;stroke:#008000;" x="1189.570909" xlink:href="#m1a3dad6471" y="160.373508"/>
     <use style="fill:#008000;stroke:#008000;" x="1204.756364" xlink:href="#m1a3dad6471" y="137.862308"/>
     <use style="fill:#008000;stroke:#008000;" x="1219.941818" xlink:href="#m1a3dad6471" y="159.266399"/>
     <use style="fill:#008000;stroke:#008000;" x="1235.127273" xlink:href="#m1a3dad6471" y="176.611095"/>
     <use style="fill:#008000;stroke:#008000;" x="1250.312727" xlink:href="#m1a3dad6471" y="185.46796"/>
     <use style="fill:#008000;stroke:#008000;" x="1265.498182" xlink:href="#m1a3dad6471" y="279.941194"/>
     <use style="fill:#008000;stroke:#008000;" x="1280.683636" xlink:href="#m1a3dad6471" y="265.917823"/>
     <use style="fill:#008000;stroke:#008000;" x="1295.869091" xlink:href="#m1a3dad6471" y="202.443619"/>
     <use style="fill:#008000;stroke:#008000;" x="1311.054545" xlink:href="#m1a3dad6471" y="221.264459"/>
    </g>
   </g>
   <g id="patch_3">
    <path d="M 115.2 401.76 
L 115.2 51.84 
" style="fill:none;stroke:#f0f0f0;stroke-linecap:square;stroke-linejoin:miter;stroke-width:3;"/>
   </g>
   <g id="patch_4">
    <path d="M 1368 401.76 
L 1368 51.84 
" style="fill:none;stroke:#f0f0f0;stroke-linecap:square;stroke-linejoin:miter;stroke-width:3;"/>
   </g>
   <g id="patch_5">
    <path d="M 115.2 401.76 
L 1368 401.76 
" style="fill:none;stroke:#f0f0f0;stroke-linecap:square;stroke-linejoin:miter;stroke-width:3;"/>
   </g>
   <g id="patch_6">
    <path d="M 115.2 51.84 
L 1368 51.84 
" style="fill:none;stroke:#f0f0f0;stroke-linecap:square;stroke-linejoin:miter;stroke-width:3;"/>
   </g>
   <g id="text_26">
    <!-- Injuries in accidents -->
    <g transform="translate(640.801575 45.84)scale(0.2016 -0.2016)">
     <defs>
      <path d="M 9.8125 72.90625 
L 19.671875 72.90625 
L 19.671875 0 
L 9.8125 0 
z
" id="DejaVuSans-73"/>
     </defs>
     <use xlink:href="#DejaVuSans-73"/>
     <use x="29.492188" xlink:href="#DejaVuSans-110"/>
     <use x="92.871094" xlink:href="#DejaVuSans-106"/>
     <use x="120.654297" xlink:href="#DejaVuSans-117"/>
     <use x="184.033203" xlink:href="#DejaVuSans-114"/>
     <use x="225.146484" xlink:href="#DejaVuSans-105"/>
     <use x="252.929688" xlink:href="#DejaVuSans-101"/>
     <use x="314.453125" xlink:href="#DejaVuSans-115"/>
     <use x="366.552734" xlink:href="#DejaVuSans-32"/>
     <use x="398.339844" xlink:href="#DejaVuSans-105"/>
     <use x="426.123047" xlink:href="#DejaVuSans-110"/>
     <use x="489.501953" xlink:href="#DejaVuSans-32"/>
     <use x="521.289062" xlink:href="#DejaVuSans-97"/>
     <use x="582.568359" xlink:href="#DejaVuSans-99"/>
     <use x="637.548828" xlink:href="#DejaVuSans-99"/>
     <use x="692.529297" xlink:href="#DejaVuSans-105"/>
     <use x="720.3125" xlink:href="#DejaVuSans-100"/>
     <use x="783.789062" xlink:href="#DejaVuSans-101"/>
     <use x="845.3125" xlink:href="#DejaVuSans-110"/>
     <use x="908.691406" xlink:href="#DejaVuSans-116"/>
     <use x="947.900391" xlink:href="#DejaVuSans-115"/>
    </g>
   </g>
   <g id="legend_1">
    <g id="patch_7">
     <path d="M 1184.73125 104.13875 
L 1358.2 104.13875 
Q 1361 104.13875 1361 101.33875 
L 1361 61.64 
Q 1361 58.84 1358.2 58.84 
L 1184.73125 58.84 
Q 1181.93125 58.84 1181.93125 61.64 
L 1181.93125 101.33875 
Q 1181.93125 104.13875 1184.73125 104.13875 
z
" style="fill:#f0f0f0;opacity:0.8;stroke:#cccccc;stroke-linejoin:miter;stroke-width:0.5;"/>
    </g>
    <g id="line2d_162">
     <path d="M 1187.53125 70.177812 
L 1215.53125 70.177812 
" style="fill:none;stroke:#008000;stroke-width:4;"/>
    </g>
    <g id="line2d_163">
     <g>
      <use style="fill:#008000;stroke:#008000;" x="1201.53125" xlink:href="#m1a3dad6471" y="70.177812"/>
     </g>
    </g>
    <g id="text_27">
     <!-- injuries per month -->
     <g transform="translate(1226.73125 75.077812)scale(0.14 -0.14)">
      <defs>
       <path d="M 18.109375 8.203125 
L 18.109375 -20.796875 
L 9.078125 -20.796875 
L 9.078125 54.6875 
L 18.109375 54.6875 
L 18.109375 46.390625 
Q 20.953125 51.265625 25.265625 53.625 
Q 29.59375 56 35.59375 56 
Q 45.5625 56 51.78125 48.09375 
Q 58.015625 40.1875 58.015625 27.296875 
Q 58.015625 14.40625 51.78125 6.484375 
Q 45.5625 -1.421875 35.59375 -1.421875 
Q 29.59375 -1.421875 25.265625 0.953125 
Q 20.953125 3.328125 18.109375 8.203125 
z
M 48.6875 27.296875 
Q 48.6875 37.203125 44.609375 42.84375 
Q 40.53125 48.484375 33.40625 48.484375 
Q 26.265625 48.484375 22.1875 42.84375 
Q 18.109375 37.203125 18.109375 27.296875 
Q 18.109375 17.390625 22.1875 11.75 
Q 26.265625 6.109375 33.40625 6.109375 
Q 40.53125 6.109375 44.609375 11.75 
Q 48.6875 17.390625 48.6875 27.296875 
z
" id="DejaVuSans-112"/>
      </defs>
      <use xlink:href="#DejaVuSans-105"/>
      <use x="27.783203" xlink:href="#DejaVuSans-110"/>
      <use x="91.162109" xlink:href="#DejaVuSans-106"/>
      <use x="118.945312" xlink:href="#DejaVuSans-117"/>
      <use x="182.324219" xlink:href="#DejaVuSans-114"/>
      <use x="223.4375" xlink:href="#DejaVuSans-105"/>
      <use x="251.220703" xlink:href="#DejaVuSans-101"/>
      <use x="312.744141" xlink:href="#DejaVuSans-115"/>
      <use x="364.84375" xlink:href="#DejaVuSans-32"/>
      <use x="396.630859" xlink:href="#DejaVuSans-112"/>
      <use x="460.107422" xlink:href="#DejaVuSans-101"/>
      <use x="521.630859" xlink:href="#DejaVuSans-114"/>
      <use x="562.744141" xlink:href="#DejaVuSans-32"/>
      <use x="594.53125" xlink:href="#DejaVuSans-109"/>
      <use x="691.943359" xlink:href="#DejaVuSans-111"/>
      <use x="753.125" xlink:href="#DejaVuSans-110"/>
      <use x="816.503906" xlink:href="#DejaVuSans-116"/>
      <use x="855.712891" xlink:href="#DejaVuSans-104"/>
     </g>
    </g>
    <g id="line2d_164">
     <path d="M 1187.53125 90.727187 
L 1215.53125 90.727187 
" style="fill:none;stroke:#008fd5;stroke-width:4;"/>
    </g>
    <g id="text_28">
     <!-- mean -->
     <g transform="translate(1226.73125 95.627187)scale(0.14 -0.14)">
      <use xlink:href="#DejaVuSans-109"/>
      <use x="97.412109" xlink:href="#DejaVuSans-101"/>
      <use x="158.935547" xlink:href="#DejaVuSans-97"/>
      <use x="220.214844" xlink:href="#DejaVuSans-110"/>
     </g>
    </g>
   </g>
  </g>
 </g>
 <defs>
  <clipPath id="p5ee367bdf8">
   <rect height="349.92" width="1252.8" x="115.2" y="51.84"/>
  </clipPath>
 </defs>
</svg>
